<?xml version="1.0" encoding="UTF-8" standalone="no"?>
<!-- Created with Inkscape (http://www.inkscape.org/) -->

<svg
   xmlns:dc="http://purl.org/dc/elements/1.1/"
   xmlns:cc="http://creativecommons.org/ns#"
   xmlns:rdf="http://www.w3.org/1999/02/22-rdf-syntax-ns#"
   xmlns:svg="http://www.w3.org/2000/svg"
   xmlns="http://www.w3.org/2000/svg"
   xmlns:xlink="http://www.w3.org/1999/xlink"
   xmlns:sodipodi="http://sodipodi.sourceforge.net/DTD/sodipodi-0.dtd"
   xmlns:inkscape="http://www.inkscape.org/namespaces/inkscape"
   width="64px"
   height="64px"
   id="svg2996"
   version="1.1"
   inkscape:version="0.92.3 (2405546, 2018-03-11)"
   sodipodi:docname="icon.svg"
   enable-background="new">
  <defs
     id="defs2998">
    <linearGradient
       id="linearGradient3948">
      <stop
         style="stop-color:#14c412;stop-opacity:1;"
         offset="0"
         id="stop3950" />
      <stop
         style="stop-color:#2fa92d;stop-opacity:1;"
         offset="1"
         id="stop3952" />
    </linearGradient>
    <linearGradient
       id="linearGradient3860">
      <stop
         style="stop-color:#cfddee;stop-opacity:1;"
         offset="0"
         id="stop3862" />
      <stop
         style="stop-color:#6793cd;stop-opacity:1;"
         offset="1"
         id="stop3864" />
    </linearGradient>
    <radialGradient
       inkscape:collect="always"
       xlink:href="#linearGradient3860"
       id="radialGradient3870"
       cx="42.630283"
       cy="18.727272"
       fx="42.630283"
       fy="18.727272"
       r="31.787046"
       gradientUnits="userSpaceOnUse"
       gradientTransform="matrix(-0.79604311,0,0,-1,87.02645,34.545452)" />
    <linearGradient
       inkscape:collect="always"
       xlink:href="#linearGradient3948"
       id="linearGradient3954"
       x1="1.8088502"
       y1="29.950056"
       x2="62.28172"
       y2="29.950056"
       gradientUnits="userSpaceOnUse" />
    <clipPath
       id="a">
      <path
         inkscape:connector-curvature="0"
         d="M 0,0 H 245.808 V 130 H 0 Z"
         id="path893" />
    </clipPath>
    <filter
       inkscape:menu-tooltip="In and out glow with a possible offset and colorizable flood"
       inkscape:menu="Shadows and Glows"
       inkscape:label="Cutout Glow"
       style="color-interpolation-filters:sRGB;"
       id="filter2237"
       x="-0.0078341602"
       width="1.0156683"
       y="-0.025627512"
       height="1.051255">
      <feOffset
         dy="3"
         dx="3"
         id="feOffset2227" />
      <feFlood
         flood-color="rgb(0,0,0)"
         flood-opacity="1"
         result="flood"
         id="feFlood2231" />
      <feComposite
         in="flood"
         in2="SourceGraphic"
         operator="in"
         result="composite"
         id="feComposite2233" />
      <feBlend
         in="blur"
         in2="composite"
         mode="normal"
         id="feBlend2235" />
    </filter>
    <filter
       inkscape:collect="always"
       style="color-interpolation-filters:sRGB"
       id="filter2409">
      <feBlend
         inkscape:collect="always"
         mode="hard-light"
         in2="BackgroundImage"
         id="feBlend2411" />
    </filter>
  </defs>
  <sodipodi:namedview
     id="base"
     pagecolor="#ffffff"
     bordercolor="#666666"
     borderopacity="1.0"
     inkscape:pageopacity="0.0"
     inkscape:pageshadow="2"
     inkscape:zoom="3.8890873"
     inkscape:cx="85.391289"
     inkscape:cy="-36.579902"
     inkscape:current-layer="layer1"
     showgrid="true"
     inkscape:document-units="px"
     inkscape:grid-bbox="true"
     inkscape:window-width="1920"
     inkscape:window-height="1010"
     inkscape:window-x="0"
     inkscape:window-y="42"
     inkscape:window-maximized="1" />
  <metadata
     id="metadata3001">
    <rdf:RDF>
      <cc:Work
         rdf:about="">
        <dc:format>image/svg+xml</dc:format>
        <dc:type
           rdf:resource="http://purl.org/dc/dcmitype/StillImage" />
      </cc:Work>
    </rdf:RDF>
  </metadata>
  <g
     id="layer1"
     inkscape:label="Layer 1"
     inkscape:groupmode="layer">
    <path
       style="display:inline;opacity:1;fill:url(#radialGradient3870);fill-opacity:1;fill-rule:evenodd;stroke:#326fcb;stroke-width:2.66499996;stroke-linejoin:round;stroke-miterlimit:4;stroke-dasharray:none;stroke-opacity:1"
       d="m 62.363635,32.454544 c 0,16.819581 -13.63496,30.454546 -30.454545,30.454546 -16.819581,0 -30.4545465,-13.634965 -30.4545465,-30.454546 0,-16.819581 13.6349655,-30.4545464 30.4545465,-30.4545464 16.819585,0 30.454545,13.6349654 30.454545,30.4545464 z"
       id="path3036"
       inkscape:connector-curvature="0" />
    <g
       id="g3941"
       style="display:inline;fill:url(#linearGradient3954);fill-opacity:1">
      <path
         sodipodi:nodetypes="csszszssssssssssc"
         inkscape:connector-curvature="0"
         id="path3807"
         d="m 12.454545,53.090909 c 1.274253,-0.234239 0.987012,-1.887258 1.167988,-3.342749 0.14498,-1.165998 0.94868,-2.074964 0.426375,-2.997098 C 13.206543,45.26386 10.665333,45.173915 10.090909,44.727273 9.5164846,44.28063 6.2081861,39.649018 4.2602054,38.122499 2.7215555,36.916749 2.4418971,38.844949 2.1818184,38 1.9217398,37.155052 1.3372634,30.593092 3.1337285,24.323806 3.5115035,23.00545 7.1602709,22.238388 7.515887,20.991567 7.8164462,19.93778 6.145546,20.97674 6.5045705,19.949524 6.9292731,18.734395 8.5422106,18.772373 8.9712963,17.539473 9.3487965,16.454795 7.2886825,16.299144 7.3366292,14.911299 c 0.047818,-1.384128 2.5672416,-2.909759 3.0101188,-3.832106 0.501632,-1.044709 3.989113,1.131964 4.453467,0.186338 1.360061,-2.7696803 3.77755,-2.9357004 4.238968,-4.6431458 C 20.135902,2.5640536 9.8124841,10.776552 9.5555349,11.098355 -5.3352534,29.747591 5.3140435,47.482146 8.153283,51.536495 c 0.8794239,1.255791 2.256379,1.571058 4.301262,1.554414 z"
         style="opacity:1;fill:url(#linearGradient3954);fill-opacity:1;stroke:#000000;stroke-width:0;stroke-linecap:butt;stroke-linejoin:miter;stroke-miterlimit:4;stroke-dasharray:none;stroke-opacity:1" />
      <path
         sodipodi:nodetypes="zssszzsszsssssssssszssssszszzzsssssszzzzssz"
         inkscape:connector-curvature="0"
         id="path3809"
         d="m 27.636364,21.090909 c 0.780036,-0.268848 3.841437,-0.393949 5.865311,0.466598 1.560421,0.663488 1.932626,2.226274 3.705311,2.820447 1.73958,0.583077 1.719271,-1.07816 3.166476,-0.925882 1.979473,0.208285 5.200248,1.909349 5.626538,-0.04298 0.42629,-1.952329 -3.482539,-1.564576 -3.636364,-1.954546 -0.153825,-0.38997 -0.907464,-2.20096 -1.367687,-2.219935 -0.792951,-0.0327 0.05341,1.647316 -0.882662,1.834095 -0.870354,0.173666 -3.564327,-3.908646 -3.749651,-4.114159 -0.185324,-0.205513 -3.658196,-1.030126 0.01227,1.393627 0.660651,0.436254 1.06746,1.248195 0.99089,1.616479 -0.0805,0.387187 -1.377987,-0.797843 -2.012248,-1.182769 -0.568931,-0.345277 -1.250482,-2.173596 -2.841505,-1.6363 -2.980321,1.006469 -4.410452,3.689536 -6.306909,4.235529 -1.803183,0.519139 -2.182124,-2.658666 -1.606749,-3.390722 0.731477,-0.930665 5.771549,0.199111 2.985466,-2.11817 -1.634495,-1.359465 0.951504,-1.857968 2.952757,-2.427455 0.540886,-0.153917 1.479538,-2.697608 2.652906,-2.949768 0.92167,-0.19807 1.977272,1.678944 2.534156,1.538303 2.61531,-0.660493 3.627299,-0.856397 4.138969,-1.669664 C 40.375306,9.5503696 38.831377,9.3355454 38.64865,8.1414392 38.536654,7.4095538 39.959296,6.3562427 38.992557,6.2706175 37.822051,6.1669445 37.22735,10.955693 35.695763,11.099921 34.674286,11.196113 33.201042,9.9657489 32.225228,9.5607789 29.616386,8.4780901 31.824133,7.6684294 34.175191,6.3965729 c 1.748176,-0.9457141 2.377964,-1.780523 6.370263,-1.6693002 3.992299,0.1112228 8.320174,2.5394347 11.552346,4.9160824 3.077189,2.2626879 4.273435,3.9476669 5.674927,5.9475539 1.401492,1.999888 2.5305,4.587181 3.589725,7.834384 1.059224,3.247202 1.320981,5.502969 0.155378,7.463313 -1.165603,1.960344 -1.125444,7.239011 -1.704848,2.703117 -0.687643,-5.383243 -2.822899,-4.992543 -3.649927,-5.46511 -1.684387,-0.962463 -2.790222,-0.440248 -1.184328,0.59583 2.066408,1.333188 -1.199397,3.659878 -2.461262,4.238816 -4.151366,1.904629 -2.566664,-0.580367 -3.554528,-2.528722 -1.266813,-2.498526 -6.400697,-10.413787 -1.731214,0.204992 2.00796,4.56626 6.0178,4.429608 5.495549,5.726108 -0.522251,1.2965 -2.494318,0.151757 -4.636363,5.454545 -2.142044,5.302788 0.550185,7.981654 -6.636364,12.590909 -7.186548,4.609255 -7.004448,-12.805096 -7.103729,-14.598635 -0.09928,-1.793539 -4.961949,-2.510136 -8.446558,-1.524932 -2.274119,0.642963 -5.891641,-5.638639 -5.73453,-7.377525 0.418624,-4.633269 6.6866,-9.548242 7.466636,-9.81709 z"
         style="opacity:1;fill:url(#linearGradient3954);fill-opacity:1;stroke:#000000;stroke-width:0;stroke-linecap:butt;stroke-linejoin:miter;stroke-miterlimit:4;stroke-dasharray:none;stroke-opacity:1" />
      <path
         sodipodi:nodetypes="zsszszsz"
         inkscape:connector-curvature="0"
         id="path3807-9"
         d="m 26.626118,12.261844 c 0.506237,-0.183147 -0.826308,1.374667 0.633897,1.236797 1.156344,-0.10918 2.903225,-0.302237 2.38092,-1.224371 -0.842365,-1.487202 -1.264763,-0.94766 -1.480726,-1.978334 -0.215963,-1.0306751 -1.366307,-1.8392743 -1.537059,0.148182 -0.05106,0.594306 -1.615575,0.735346 -1.822054,1.161566 -0.206478,0.42622 -0.210556,1.244186 0.150041,1.3492 0.388335,0.113093 1.168743,-0.509893 1.674981,-0.69304 z"
         style="opacity:1;fill:url(#linearGradient3954);fill-opacity:1;stroke:#000000;stroke-width:0;stroke-linecap:butt;stroke-linejoin:miter;stroke-miterlimit:4;stroke-dasharray:none;stroke-opacity:1" />
      <path
         sodipodi:nodetypes="zzzz"
         inkscape:connector-curvature="0"
         id="path3807-9-7"
         d="M 23.212662,6.8486211 C 24.138782,6.4601476 22.794749,5.6960066 21.162652,6.771003 19.530555,7.8459993 20.48825,7.5611724 20.862716,7.6702259 21.237182,7.7792794 22.286543,7.2370945 23.212662,6.8486211 Z"
         style="opacity:1;fill:url(#linearGradient3954);fill-opacity:1;stroke:#000000;stroke-width:0;stroke-linecap:butt;stroke-linejoin:miter;stroke-miterlimit:4;stroke-dasharray:none;stroke-opacity:1" />
      <path
         sodipodi:nodetypes="zzzz"
         inkscape:connector-curvature="0"
         id="path3807-9-1"
         d="m 49.173839,50.447542 c 1.593614,0.222363 0.694273,-0.948645 2.250125,-4.038377 1.555851,-3.089731 -1.088018,-0.634888 -1.762048,0.59816 -0.674029,1.233047 -2.081692,3.217854 -0.488077,3.440217 z"
         style="opacity:1;fill:url(#linearGradient3954);fill-opacity:1;stroke:#000000;stroke-width:0;stroke-linecap:butt;stroke-linejoin:miter;stroke-miterlimit:4;stroke-dasharray:none;stroke-opacity:1" />
    </g>
    <path
       inkscape:connector-curvature="0"
       id="path3858"
       d="m 62.363635,32.454544 c 0,16.819581 -13.63496,30.454546 -30.454545,30.454546 -16.819581,0 -30.4545465,-13.634965 -30.4545465,-30.454546 0,-16.819581 13.6349655,-30.4545464 30.4545465,-30.4545464 16.819585,0 30.454545,13.6349654 30.454545,30.4545464 z"
       style="opacity:1;fill:none;fill-opacity:1;fill-rule:evenodd;stroke:#326fcb;stroke-width:2.66499996;stroke-linejoin:round;stroke-miterlimit:4;stroke-dasharray:none;stroke-opacity:1" />
    <g
       id="g2418"
       transform="matrix(1.0673726,0,0,1.0673726,-3.9115533,-4.4634991)">
      <g
         style="opacity:1;filter:url(#filter2409)"
         transform="translate(-10.435805,-0.236419)"
         id="g1561">
        <path
           d="M 22.89035,41.010318 H 63.262185 V 53.327493 H 22.89035 Z"
           id="path896"
           inkscape:connector-curvature="0"
           style="display:inline;fill:#ffffff;fill-rule:nonzero;stroke-width:0.16508082" />
        <path
           style="display:inline;fill:#e2011c;fill-rule:nonzero;stroke-width:0.16508082"
           inkscape:connector-curvature="0"
           id="path900"
           d="m 45.992585,53.327493 0.06141,-0.14263 c 0.103836,-0.258186 0.211139,-0.455127 0.36681,-0.671548 0.16442,-0.228967 0.526773,-0.566393 0.677327,-0.630774 0.18522,-0.0794 0.415178,-0.107303 0.700272,-0.08502 0.244485,0.01948 0.995108,0.130084 1.298196,0.191989 0.230783,0.04655 0.568703,0.05101 0.727511,0.0092 0.306225,-0.08023 0.487484,-0.235736 0.573656,-0.491281 0.0662,-0.196281 0.06554,-0.375394 -0.0017,-0.493922 -0.0903,-0.159633 -0.07495,-0.202719 0.144446,-0.390416 0.108128,-0.09492 0.196776,-0.181259 0.197106,-0.191989 0,-0.06471 -0.151214,-0.31712 -0.189017,-0.319266 -0.02443,0 -0.07115,-0.02146 -0.104496,-0.04523 l -0.06224,-0.04523 0.128928,-0.06042 c 0.177792,-0.08205 0.309032,-0.209322 0.309032,-0.299787 0,-0.03879 -0.0378,-0.133715 -0.08452,-0.211468 -0.08898,-0.148738 -0.111099,-0.291203 -0.06224,-0.375229 0.0312,-0.05613 0.08898,-0.07973 0.364663,-0.151049 0.231114,-0.06025 0.315635,-0.12282 0.348981,-0.256535 0.02658,-0.114401 0.01321,-0.187697 -0.06224,-0.325705 -0.06224,-0.112255 -0.466849,-0.670888 -0.582405,-0.80675 -0.157983,-0.18324 -0.351292,-0.50036 -0.406925,-0.670723 -0.05547,-0.168218 -0.05778,-0.178948 -0.01552,-0.394709 0.08667,-0.459419 0.03549,-0.83894 -0.211139,-1.578832 -0.18456,-0.552196 -0.233424,-0.685911 -0.289056,-0.789417 -0.104496,-0.185386 -0.09112,-0.228637 0.122325,-0.385959 0.102185,-0.07561 0.195621,-0.155341 0.208992,-0.179113 0.06438,-0.107797 -0.0089,-0.316955 -0.129093,-0.375228 -0.07775,-0.03665 -0.120014,-0.0109 -0.197767,0.118528 -0.06009,0.09921 -0.08452,0.116547 -0.146757,0.116547 -0.104496,0 -0.12216,-0.03879 -0.05547,-0.118693 0.07544,-0.09492 0.07115,-0.109944 -0.05118,-0.124967 -0.09112,-0.01089 -0.137842,-0.04325 -0.335774,-0.224344 -0.262314,-0.241679 -0.440106,-0.353769 -0.791233,-0.50036 -0.162274,-0.06686 -0.217906,-0.09921 -0.160128,-0.09063 0.05118,0.0064 0.228967,0.01931 0.397845,0.02806 0.486988,0.02146 0.604691,-0.03665 0.718101,-0.353768 0.07561,-0.215761 0.113411,-0.314974 -0.06455,-0.465858 l -0.63532,-0.534649 H 63.26169 v 12.317175 z" />
        <path
           style="display:inline;fill:#003189;fill-rule:nonzero;stroke-width:0.16508082"
           inkscape:connector-curvature="0"
           id="path902"
           d="m 33.574711,53.327493 c -0.105487,-0.0099 -0.197107,-0.0142 -0.203545,-0.01997 -0.01123,-0.0099 0.108128,-0.07924 0.654876,-0.379685 0.175646,-0.09657 0.247621,-0.148243 0.223189,-0.160129 -0.01998,-0.0096 -0.17284,-0.0246 -0.340232,-0.03368 -0.248446,-0.01304 -0.320421,-0.0096 -0.393387,0.02096 -0.04952,0.02047 -0.246301,0.07412 -0.437464,0.119353 -0.475763,0.112255 -0.63358,0.189513 -0.786941,0.379686 l -0.05778,0.0733 H 22.89035 v -12.31701 h 18.541052 l -0.359216,0.211303 c -0.197766,0.08898 -0.427724,0.212129 -0.51076,0.274035 -0.281958,0.209157 -0.661809,0.686241 -0.756565,0.95004 -0.03549,0.09707 -0.06669,0.133055 -0.173335,0.199087 -0.164585,0.100534 -0.360206,0.292028 -0.522481,0.510265 -0.220052,0.29632 -0.640183,0.964072 -0.722393,1.149128 -0.128928,0.287405 -0.117868,0.506302 0.07115,1.364888 0.08221,0.378035 0.171189,0.762178 0.197767,0.853468 0.02674,0.09129 0.05563,0.24597 0.06455,0.343533 0.01552,0.17482 0.02889,0.212459 0.1423,0.426734 0.03104,0.0586 0.05547,0.124966 0.05547,0.147912 0,0.02278 0.02229,0.05464 0.05118,0.07115 a 0.11060415,0.11060415 0 0 1 0.05118,0.08914 c 0,0.04094 0.05992,0.119023 0.191163,0.249107 0.300117,0.29764 0.517859,0.576627 0.517859,0.664945 0,0.07247 -0.117703,0.09112 -0.308866,0.04886 -0.222364,-0.04952 -0.404613,-0.156166 -0.684755,-0.401972 -0.120014,-0.104661 -0.215596,-0.174655 -0.215596,-0.156166 0,0.01849 0.08006,0.115887 0.180103,0.21576 0.197767,0.199583 0.228967,0.25406 0.186707,0.3262 -0.0378,0.06356 -0.128929,0.08205 -0.2534,0.05118 -0.14461,-0.03566 -0.226821,0.01403 -0.204535,0.120179 0.01337,0.06686 0.01106,0.0733 -0.0312,0.06042 -0.08006,-0.02806 -0.257856,-0.06042 -0.415673,-0.07561 -0.146757,-0.01288 -0.157818,-0.01931 -0.244485,-0.129424 -0.06669,-0.08403 -0.120014,-0.12282 -0.189018,-0.140153 -0.260002,-0.06471 -0.9091,-0.168218 -1.342602,-0.211304 -0.764819,-0.07561 -0.949215,-0.08204 -1.316024,-0.04094 -0.282288,0.03005 -0.357895,0.04952 -0.511421,0.118528 -0.273373,0.125131 -0.746825,0.517694 -0.746825,0.619053 0,0.04738 0.104496,0.03236 0.222198,-0.0345 0.360207,-0.200573 1.598478,-0.485337 2.205315,-0.506963 0.300117,-0.01073 0.2846,0.0023 -0.07775,0.06257 -0.100039,0.01733 -0.335774,0.07131 -0.524627,0.122985 -0.189017,0.05184 -0.515877,0.129423 -0.724705,0.174656 -0.208992,0.04325 -0.446873,0.101359 -0.524626,0.127277 l -0.144611,0.04754 0.222364,0.0021 c 1.138232,0.01073 2.43197,0.336435 2.961054,0.744019 0.226656,0.174821 0.309032,0.196281 0.64233,0.163926 0.457934,-0.04309 1.049254,-0.239368 1.309421,-0.435649 0.11341,-0.08419 0.204535,-0.118693 0.204535,-0.0733 0,0.07759 -0.148903,0.493922 -0.213449,0.595282 -0.07115,0.116382 -0.07561,0.131569 -0.0378,0.157487 0.02229,0.01502 0.03566,0.0345 0.02674,0.04094 -0.0089,0.0086 0.0089,0.02163 0.03995,0.03021 0.08667,0.02592 0.06455,0.04952 -0.0733,0.07973 -0.133386,0.03236 -0.240193,0.08634 -0.240193,0.122985 0,0.01288 0.01783,0.02377 0.04012,0.02377 0.06669,0 0.01783,0.04309 -0.07115,0.06025 -0.06009,0.01304 -0.07115,0.02163 -0.04441,0.03681 0.02658,0.01502 0.02658,0.02146 0.0021,0.02146 -0.01783,0 -0.03335,0.02377 -0.03335,0.05398 0,0.03665 -0.02658,0.06257 -0.08006,0.08403 -0.131074,0.05398 -0.09558,0.08205 0.08452,0.06686 0.09112,-0.0086 0.146757,-0.0086 0.124471,0 -0.02229,0.0066 -0.168878,0.06686 -0.326695,0.133716 -0.160128,0.06471 -0.366809,0.14461 -0.460245,0.17482 -0.106642,0.0345 -0.173335,0.069 -0.180103,0.09492 -0.0087,0.04094 0.04011,0.03879 0.164585,-0.0043 0.02229,-0.0087 0.04226,-0.0045 0.04226,0.0064 0,0.01073 -0.273539,0.15303 -0.607002,0.316955 -0.33561,0.163925 -0.646787,0.332142 -0.695651,0.373248 -0.04903,0.04309 -0.108953,0.07759 -0.137842,0.07759 -0.02674,0 -0.06224,0.02806 -0.08006,0.06042 -0.05118,0.10136 -0.04226,0.114236 0.08006,0.09492 0.179938,-0.02806 0.264459,-0.02592 0.275685,0.0064 0.0066,0.01717 -0.01123,0.03021 -0.04012,0.03021 a 0.12331537,0.12331537 0 0 0 -0.08221,0.0345 c -0.01783,0.01931 -0.06224,0.03879 -0.100039,0.04094 -0.04672,0.0064 -0.08898,0.0345 -0.124471,0.08419 -0.02889,0.04094 -0.07561,0.08188 -0.104496,0.08832 -0.02889,0.0064 0.01172,0.0087 0.09112,0.0021 1.180328,-0.07973 1.400546,-0.118528 1.876804,-0.336435 0.405934,-0.185385 0.827055,-0.463712 1.127172,-0.739727 0.08667,-0.0799 0.166732,-0.144611 0.177792,-0.144611 0.04061,0 0.01849,0.13157 -0.0416,0.250263 -0.104496,0.202719 -0.322238,0.38827 -0.771423,0.657847 -0.226656,0.135861 -0.471141,0.265285 -0.543611,0.284764 -0.225501,0.06455 -0.589174,0.133716 -0.971501,0.18324 -1.243389,0.161779 -1.719317,0.284764 -2.190622,0.567218 -0.07957,0.0454 -0.162275,0.08205 -0.184396,0.07775 -0.02228,-0.0021 -0.08221,0.02575 -0.131239,0.06471 -0.139988,0.109944 -0.0378,0.09046 0.25571,-0.0454 0.302263,-0.140153 0.442417,-0.161779 0.204536,-0.03236 -0.291203,0.159634 -0.511256,0.260993 -0.729162,0.260993 h -1.159363 z m -1.544496,-1.373802 c 0.04705,-0.01799 0.203214,-0.09707 0.346834,-0.175646 0.143786,-0.07841 0.314314,-0.164751 0.379356,-0.191329 l 0.406924,-0.166071 c 0.332638,-0.135367 0.821278,-0.263139 0.849176,-0.222034 0.0099,0.0142 0.08287,0.03021 0.162275,0.03516 0.110439,0.0068 0.129753,0.01337 0.08436,0.0279 -0.03236,0.01024 -0.0591,0.02806 -0.0591,0.03978 0,0.04276 0.24564,0.03021 0.348981,-0.01832 0.04078,-0.01948 0.132395,-0.04094 0.20371,-0.04969 0.08881,-0.01073 0.129753,-0.02575 0.129753,-0.04952 0,-0.02806 0.02278,-0.03236 0.10268,-0.01948 0.110605,0.01733 0.347661,-0.02361 0.987019,-0.168217 0.432511,-0.09921 0.760362,-0.198427 1.048263,-0.316955 l 0.208167,-0.08634 -0.208167,-0.120839 c -0.507954,-0.293348 -1.018219,-0.474442 -2.137962,-0.75706 -0.19496,-0.04952 -0.366149,-0.10136 -0.380511,-0.114236 -0.01733,-0.01519 -0.0089,-0.01733 0.02625,-0.0064 0.111759,0.03665 0.196941,0.04309 0.196941,0.01502 0,-0.0345 -0.08452,-0.06257 -0.250758,-0.08403 -0.151874,-0.01948 -0.249932,-0.06042 -0.144445,-0.06042 0.163265,0 -0.117373,-0.09492 -0.431852,-0.142465 -0.232599,-0.03665 -0.24597,-0.04523 -0.148903,-0.08832 0.08452,-0.03665 0.175646,-0.176966 0.151875,-0.232929 -0.01998,-0.04969 -0.04441,-0.04325 -0.171189,0.03236 -0.242339,0.146592 -0.464538,0.388105 -0.589009,0.638368 -0.07115,0.142299 -0.04672,0.155341 0.320092,0.170363 0.302263,0.0109 0.30672,0.01304 0.228967,0.04969 a 0.82325805,0.82325805 0 0 1 -0.193474,0.05382 c -0.21345,0.02806 -0.331153,0.120839 -0.22451,0.17482 0.0312,0.01502 0.01997,0.0279 -0.05778,0.06257 -0.08667,0.03665 -0.09112,0.04523 -0.05118,0.06455 0.02674,0.01304 0.10235,0.01948 0.169043,0.01519 0.09327,-0.0064 0.135531,0.0021 0.179938,0.03665 l 0.05794,0.04523 -0.115721,0.06471 c -0.06438,0.03665 -0.135532,0.101359 -0.159963,0.142464 -0.02443,0.04094 -0.111265,0.140154 -0.195621,0.219888 -0.08238,0.0799 -0.151214,0.161779 -0.151214,0.183405 0,0.01948 -0.120014,0.125131 -0.268917,0.230783 -0.39801,0.28691 -0.571345,0.446378 -0.571345,0.521985 0,0.04094 -0.02229,0.07544 -0.06224,0.09921 -0.124471,0.0733 -0.189018,0.157322 -0.120014,0.157322 0.01552,0 0.06669,-0.01502 0.113246,-0.03219 z m 3.070668,-0.277006 c 0.09822,-0.01189 0.212294,-0.03945 0.252904,-0.06124 l 0.07429,-0.03962 -0.126782,-0.05695 -0.126617,-0.05695 -0.126287,0.04622 c -0.06966,0.02542 -0.165906,0.05959 -0.213944,0.0761 -0.193805,0.0662 -0.218898,0.155176 -0.03731,0.130744 a 21.787367,21.787367 0 0 1 0.303749,-0.03681 z m -4.444471,-1.077978 c 0.584551,-0.552195 0.997583,-0.879881 1.52155,-1.207731 0.177957,-0.11143 0.303749,-0.175811 0.310022,-0.158973 0.01684,0.04523 0.09327,0.03236 0.217411,-0.03879 0.14263,-0.08205 0.213945,-0.166071 0.392067,-0.455128 0.184561,-0.301932 0.25472,-0.377539 0.521325,-0.562925 0.126617,-0.08634 0.309032,-0.217907 0.409071,-0.289057 0.144445,-0.103505 0.177792,-0.120839 0.166731,-0.07973 -0.0089,0.03005 -0.0023,0.05167 0.01766,0.05167 0.06009,0 0.342378,-0.109943 0.351292,-0.135861 0.01552,-0.04309 -0.269082,-0.08634 -0.48022,-0.0733 -0.162275,0.0086 -0.217742,0.02592 -0.420131,0.12282 -0.471306,0.230783 -0.813518,0.4789 -1.464927,1.067743 -0.468995,0.422772 -0.838115,0.707371 -1.024822,0.78727 -0.06009,0.02575 -0.106642,0.08188 -0.180103,0.215596 -0.1423,0.263139 -0.400156,0.640679 -0.642329,0.946904 -0.228968,0.289056 -0.277997,0.38827 -0.100039,0.202719 a 22.95779,22.95779 0 0 1 0.413362,-0.401147 z m 5.853601,2.59342 c 0.702419,-0.132065 0.780172,-0.14197 1.273103,-0.161284 0.553516,-0.02212 0.624171,-0.035 0.957139,-0.176306 0.106807,-0.04523 0.148573,-0.05349 0.16343,-0.03236 0.02575,0.03731 0.206681,-0.05167 0.559624,-0.275025 0.144445,-0.09112 0.34832,-0.208002 0.453477,-0.259342 0.158477,-0.07775 0.206681,-0.09063 0.283113,-0.07775 0.08138,0.0137 0.105652,0.0043 0.209488,-0.07759 0.288066,-0.229297 0.533871,-0.335114 0.779512,-0.335774 0.07346,0 0.09855,0.0094 0.09855,0.03764 0,0.02427 0.01436,0.03335 0.03929,0.0246 0.07346,-0.02575 0.04012,0.0021 -0.148077,0.129424 -0.217742,0.14461 -0.197767,0.189843 0.02443,0.04969 0.213449,-0.133716 0.21576,-0.133716 0.21576,-0.0799 0,0.03021 -0.08237,0.107963 -0.231278,0.220053 -0.340067,0.254554 -0.580094,0.465858 -0.944758,0.830356 l -0.326695,0.31712 h -4.154589 l 0.747982,-0.135861 z m 0.0066,-4.825312 c 0.02542,-0.0059 0.06669,-0.0059 0.09179,0 0.02542,0.0061 0.0045,0.01089 -0.04573,0.01089 -0.05068,0 -0.07115,-0.0048 -0.04606,-0.01089 z" />
        <path
           style="display:inline;fill:#7f7f7f;fill-rule:nonzero;stroke-width:0.16508082"
           inkscape:connector-curvature="0"
           id="path904"
           d="m 48.761651,47.465803 c -0.114731,-0.01601 -0.05563,-0.05448 0.08337,-0.05448 0.139163,0 0.212459,-0.0482 0.212459,-0.139659 0,-0.04325 -0.0089,-0.05002 -0.05332,-0.03731 -0.0378,0.01073 -0.06455,0.0017 -0.09112,-0.03087 -0.02229,-0.03021 -0.08006,-0.05184 -0.164585,-0.06191 -0.148903,-0.01799 -0.391242,-0.148408 -0.348981,-0.187697 0.01552,-0.01337 0.09343,-0.02938 0.171189,-0.03516 0.137842,-0.0104 0.146756,-0.01502 0.173334,-0.09096 0.02229,-0.05679 0.05118,-0.08419 0.100039,-0.09492 0.04012,-0.0083 0.100039,-0.03945 0.135697,-0.06966 0.0378,-0.03021 0.155506,-0.107798 0.262313,-0.170364 0.182249,-0.107963 0.29566,-0.222199 0.255545,-0.258847 -0.04226,-0.03879 -0.435648,-0.0799 -0.622354,-0.06686 -0.215761,0.01502 -0.586863,0.08634 -0.740388,0.140153 -0.157817,0.05398 -0.113245,0.0064 0.106807,-0.109944 0.29566,-0.159633 0.864694,-0.306224 1.178182,-0.306224 0.122325,0 0.53123,0.08617 0.580259,0.12282 0.09558,0.07115 -0.0089,0.321412 -0.18456,0.446543 l -0.07346,0.05167 0.120179,0.116547 -0.06224,0.04523 c -0.03335,0.02377 -0.08006,0.0454 -0.10235,0.0454 -0.02229,0 -0.08006,0.03236 -0.126617,0.0733 -0.07115,0.06257 -0.08006,0.08188 -0.06009,0.131569 0.01552,0.03665 0.01552,0.0733 -0.0045,0.105652 -0.01783,0.03021 -0.02229,0.09707 -0.01106,0.174656 0.02212,0.157487 -0.0089,0.213614 -0.137842,0.24597 -0.09344,0.02361 -0.440106,0.02806 -0.59132,0.0064 z" />
      </g>
    </g>
    <g
       id="g1567"
       style="opacity:0.93877552"
       transform="translate(0,-6)">
      <circle
         r="12.727273"
         cy="29.087395"
         cx="24.113155"
         id="path4534-3"
         style="fill:none;fill-opacity:1;stroke:#000000;stroke-width:12;stroke-miterlimit:4;stroke-dasharray:none;stroke-opacity:1" />
      <rect
         transform="matrix(0.85930371,0.51146567,-0.48634671,0.87376592,0,0)"
         y="28.490238"
         x="31.740126"
         height="17.286003"
         width="5.9491048"
         id="rect4536-7"
         style="fill:#000000;fill-opacity:1;stroke:#000000;stroke-width:8.00168037;stroke-miterlimit:4;stroke-dasharray:none;stroke-opacity:1" />
      <rect
         transform="matrix(0.85930371,0.51146567,-0.48634671,0.87376592,0,0)"
         y="28.490238"
         x="31.740124"
         height="17.286003"
         width="5.9491048"
         id="rect4536"
         style="fill:#cccccc;fill-opacity:1;stroke:#cccccc;stroke-width:4.00084019;stroke-miterlimit:4;stroke-dasharray:none;stroke-opacity:1" />
      <circle
         r="12.727273"
         cy="29.067284"
         cx="24.270969"
         id="path4534"
         style="fill:#ffffff;fill-opacity:1;stroke:#cccccc;stroke-width:8;stroke-miterlimit:4;stroke-dasharray:none;stroke-opacity:1" />
    </g>
  </g>
  <g
     inkscape:groupmode="layer"
     id="layer2"
     inkscape:label="marianne">
    <g
       id="g1554"
       style="display:inline" />
  </g>
</svg>
